<svg width="24" height="24" viewBox="0 0 24 24" fill="none" xmlns="http://www.w3.org/2000/svg">
<path d="M24 3.50002V7.5H0V3.50002C0 1.56698 1.56698 0 3.50002 0H20.5C22.433 0 24 1.56698 24 3.50002Z" fill="#795548"/>
<path d="M24 7.5V20.5C24 22.433 22.433 24 20.5 24H3.50002C1.56698 24 0 22.433 0 20.5V7.5H24Z" fill="#BDBDBD"/>
<path d="M17.5 2H20.5C20.7761 2 21 2.22387 21 2.50001V5.50001C21 5.77615 20.7761 6.00002 20.5 6.00002H17.5C17.2238 6.00002 17 5.77615 17 5.50001V2.50001C17 2.22383 17.2238 2 17.5 2Z" fill="#37474F"/>
<path d="M2.49995 4.99999C2.22381 4.99999 1.99994 4.77611 1.99994 4.49997V0.999955C1.99994 0.723814 2.22381 0.499939 2.49995 0.499939C2.7761 0.499939 2.99997 0.723814 2.99997 0.999955V4.49997C2.99997 4.77611 2.7761 4.99999 2.49995 4.99999Z" fill="#F44336"/>
<path d="M4.49999 5.00002C4.22384 5.00002 3.99997 4.77614 3.99997 4.5V0.500016C3.99997 0.223875 4.22384 0 4.49999 0C4.77613 0 5 0.223875 5 0.500016V4.5C5 4.77614 4.77613 5.00002 4.49999 5.00002Z" fill="#FFC107"/>
<path d="M6.50002 5.00002C6.22388 5.00002 6 4.77614 6 4.5V0.500016C6 0.223875 6.22388 0 6.50002 0C6.77616 0 7.00003 0.223875 7.00003 0.500016V4.5C6.99998 4.77614 6.77616 5.00002 6.50002 5.00002Z" fill="#4CAF50"/>
<path d="M12 17.5C15.0376 17.5 17.5 15.0375 17.5 12C17.5 8.96242 15.0376 6.5 12 6.5C8.96245 6.5 6.50003 8.96242 6.50003 12C6.50003 15.0375 8.96245 17.5 12 17.5Z" fill="#455A64"/>
<path d="M12 18C8.68631 18 6 15.3137 6 12C6 8.68631 8.68631 6 12 6C15.3137 6 18 8.68631 18 12C17.9962 15.3121 15.3121 17.9962 12 18ZM12 6.99998C9.23859 6.99998 6.99998 9.23855 6.99998 12C6.99998 14.7615 9.23859 17 12 17C14.7614 17 17 14.7614 17 12C16.9967 9.23995 14.76 7.00331 12 6.99998Z" fill="#8D6E63"/>
<path d="M12 15C13.6569 15 15 13.6569 15 12C15 10.3431 13.6569 9 12 9C10.3431 9 9 10.3431 9 12C9 13.6569 10.3431 15 12 15Z" fill="#37474F"/>
</svg>
