<svg width="24" height="24" viewBox="0 0 24 24" fill="none" xmlns="http://www.w3.org/2000/svg">
<path d="M7.44824 18.7717C7.44824 19.3958 6.33514 19.9023 4.96548 19.9023C3.59583 19.9023 2.48273 19.3958 2.48273 18.7717C2.48273 18.2787 3.17376 17.8626 4.1379 17.7043H5.79307C6.75721 17.8626 7.44824 18.2787 7.44824 18.7717Z" fill="#3B97D3"/>
<path d="M7.44824 18.7717V20.5808C7.44824 21.2049 6.33514 21.7115 4.96548 21.7115C3.59583 21.7115 2.48273 21.2049 2.48273 20.5808V18.7717C2.48273 19.3958 3.59583 19.9024 4.96548 19.9024C6.33514 19.9024 7.44824 19.3958 7.44824 18.7717Z" fill="#2980BA"/>
<path d="M17.3793 3.16831V0.906932C17.3779 0.407981 17.0082 0.00387053 16.5517 0.00238037H0.827586C0.371089 0.00387053 0.00136337 0.407981 0 0.906932V13.5707L17.3793 3.16831Z" fill="#2FA8CC"/>
<path d="M17.3793 15.8319H0.827586C0.371089 15.8304 0.00136337 15.4263 0 14.9273V12.666H17.3793V15.8319Z" fill="#7F8C8D"/>
<path d="M16.7297 0.0248255C13.5724 0.187645 0 1.58065 0 13.5705V0.906764C0.00136337 0.407812 0.371089 0.00370188 0.827586 0.00221172C17.7463 0.00221172 16.5794 -0.010452 16.7297 0.0248255Z" fill="#67B9CC"/>
<path d="M17.3793 0.90678V13.5705H0C0 1.58067 13.5724 0.187661 16.7297 0.0248413C17.1086 0.116019 17.3787 0.482694 17.3793 0.90678V0.90678Z" fill="#2FA8CC"/>
<path d="M22.8166 8.14314C22.643 8.14321 22.4879 8.02492 22.428 7.84689C21.6494 5.53448 19.6341 3.99802 17.3797 3.99802C15.1253 3.99802 13.1101 5.53448 12.3315 7.84689C12.2525 8.08132 12.0146 8.20139 11.8001 8.11509C11.5857 8.02879 11.4758 7.76879 11.5548 7.53437C12.4528 4.86551 14.7784 3.09204 17.3801 3.09204C19.9818 3.09204 22.3074 4.86551 23.2055 7.53437C23.2524 7.67327 23.2341 7.82844 23.1565 7.94982C23.079 8.07119 22.952 8.1434 22.8166 8.14314V8.14314Z" fill="#D1D4D1"/>
<path d="M22.3448 19.4501V23.0683C22.3448 23.3181 22.1595 23.5206 21.931 23.5206H12.8276C12.599 23.5206 12.4138 23.3181 12.4138 23.0683V19.4501C12.4138 16.4527 14.6369 14.0228 17.3793 14.0228C20.1217 14.0228 22.3448 16.4527 22.3448 19.4501Z" fill="#7D6599"/>
<path d="M11.7931 11.1734C11.1699 10.8962 10.7614 10.2353 10.7586 9.49998V9.0477C10.7625 8.05031 11.5013 7.24281 12.4138 7.2386C23.2626 7.2386 22.483 7.20558 22.8165 7.31549C23.5172 7.54473 23.9979 8.24833 24 9.0477V9.49998C24 10.4991 23.2589 11.3091 22.3448 11.3091C11.5423 11.3091 12.1965 11.3579 11.7931 11.1734Z" fill="#285680"/>
<path d="M8.27591 12.2136H4.13798C3.90944 12.2136 3.72418 12.0111 3.72418 11.7614C3.72418 11.5116 3.90944 11.3091 4.13798 11.3091H8.27591C8.50444 11.3091 8.6897 11.5116 8.6897 11.7614C8.6897 12.0111 8.50444 12.2136 8.27591 12.2136Z" fill="#F3D55B"/>
<path d="M8.48278 12.2136C9.05411 12.2136 9.51726 11.0999 9.51726 9.7261C9.51726 8.35229 9.05411 7.23859 8.48278 7.23859C7.91146 7.23859 7.4483 8.35229 7.4483 9.7261C7.4483 11.0999 7.91146 12.2136 8.48278 12.2136Z" fill="#393F4A"/>
<path d="M4.13788 11.7614H5.79305V18.0932C5.79305 18.343 5.60779 18.5455 5.37926 18.5455H4.55167C4.32314 18.5455 4.13788 18.343 4.13788 18.0932V11.7614Z" fill="#464F5D"/>
<path d="M1.65518 3.16816C1.47275 3.1684 1.31169 3.03803 1.25871 2.84723C1.20573 2.65642 1.27332 2.45021 1.42511 2.33959L2.66649 1.43503C2.85663 1.2964 3.11359 1.35249 3.24042 1.56031C3.36726 1.76814 3.31594 2.04899 3.1258 2.18762C1.77932 3.16816 1.82359 3.16816 1.65518 3.16816Z" fill="white"/>
<path d="M1.65518 5.42953C1.47459 5.42957 1.31483 5.30159 1.26048 5.11335C1.20614 4.92511 1.26976 4.7201 1.41766 4.60684L5.55559 1.4409C5.74265 1.30686 5.9933 1.35955 6.12152 1.55987C6.24974 1.76018 6.20912 2.03561 6.0298 2.18173C1.5207 5.63215 1.84139 5.42953 1.65518 5.42953Z" fill="white"/>
<path d="M15.3103 19.4501V23.5206H14.4827V19.4501C14.4827 19.2003 14.668 18.9978 14.8965 18.9978C15.125 18.9978 15.3103 19.2003 15.3103 19.4501Z" fill="#5D4C72"/>
<path d="M20.2759 19.4501V23.5206H19.4483V19.4501C19.4483 19.2003 19.6336 18.9978 19.8621 18.9978C20.0906 18.9978 20.2759 19.2003 20.2759 19.4501Z" fill="#5D4C72"/>
<path d="M17.3793 14.0228C19.6646 14.0228 21.5173 11.9978 21.5173 9.49999C21.5173 7.00214 19.6646 4.97723 17.3793 4.97723C15.094 4.97723 13.2414 7.00214 13.2414 9.49999C13.2414 11.9978 15.094 14.0228 17.3793 14.0228Z" fill="#F9C795"/>
<path d="M6.20694 9.5V11.7614C6.20694 12.0112 6.02168 12.2137 5.79315 12.2137H4.13797C3.90944 12.2137 3.72418 12.0112 3.72418 11.7614V9.5H6.20694Z" fill="#95A5A5"/>
<path d="M6.20694 7.69093V10.4046H3.72418V7.69093C3.72418 6.94158 4.27997 6.33411 4.96556 6.33411C5.65116 6.33411 6.20694 6.94158 6.20694 7.69093Z" fill="#464F5D"/>
</svg>
