<svg width="24" height="24" viewBox="0 0 24 24" fill="none" xmlns="http://www.w3.org/2000/svg">
<path d="M15.5744 6.76593H13.5319V11.8723H15.5744V6.76593Z" fill="#7D3DAF"/>
<path d="M10.4681 6.76593H8.42554V11.8723H10.4681V6.76593Z" fill="#7D3DAF"/>
<path d="M20.6808 3.44684V13.149L17.8723 15.9575H13.0212L8.93614 18.766V15.9575H4.34039V3.44684H20.6808ZM15.5744 11.8724V6.76599H13.5319V11.8724H15.5744ZM10.4681 11.8724V6.76599H8.4255V11.8724H10.4681Z" fill="white"/>
<path d="M23.4893 11.7447V16.7234L20.4255 19.7872H12.7659L9.70211 23.1064H6.8936V18.5106H0.51062V3.70213L3.06381 0.893616H23.4893V11.7447ZM20.6808 13.1489V3.44681H4.34041V15.9574H8.93615V18.766L13.0213 15.9574H17.8723L20.6808 13.1489Z" fill="#7D3DAF"/>
<path d="M23.4894 0.382996H3.06383C2.91998 0.382996 2.78277 0.44371 2.68601 0.550128L0.132817 3.35864C0.0473362 3.45265 0 3.57515 0 3.70214V18.5107C0 18.7926 0.228613 19.0213 0.510638 19.0213H6.38298V23.1064C6.38298 23.3884 6.61159 23.617 6.89362 23.617H9.70213C9.84465 23.617 9.98068 23.5575 10.0773 23.4528L12.9895 20.2979H20.4255C20.561 20.2979 20.6909 20.2441 20.7866 20.1483L23.8504 17.0845C23.9462 16.9887 24 16.8588 24 16.7234V0.893634C24 0.611608 23.7714 0.382996 23.4894 0.382996ZM22.9787 16.5119L20.214 19.2766H12.766C12.6234 19.2766 12.4874 19.3362 12.3907 19.4409L9.47857 22.5958H7.40426V18.5107C7.40426 18.2287 7.17564 18 6.89362 18H1.02128V3.89956L3.28974 1.40427H22.9787V16.5119Z" fill="#231F20"/>
<path d="M4.34041 16.4681H8.42552V18.766C8.42552 18.9557 8.53061 19.1296 8.69845 19.218C8.77311 19.2572 8.85476 19.2766 8.93611 19.2766C9.03762 19.2766 9.13873 19.2464 9.22543 19.1868L13.1799 16.4681H17.8723C18.0077 16.4681 18.1377 16.4143 18.2334 16.3186L21.0419 13.5101C21.1377 13.4143 21.1915 13.2844 21.1915 13.149V3.44686C21.1915 3.16488 20.9629 2.93622 20.6808 2.93622H4.34041C4.05839 2.93622 3.82977 3.16488 3.82977 3.44686V15.9575C3.82977 16.2395 4.05839 16.4681 4.34041 16.4681ZM4.85105 3.95749H20.1702V12.9374L17.6608 15.4469H13.0213C12.918 15.4469 12.8171 15.4782 12.732 15.5367L9.44679 17.7952V15.9575C9.44679 15.6755 9.21818 15.4469 8.93616 15.4469H4.85105V3.95749Z" fill="#231F20"/>
<path d="M10.9787 11.8723V6.76595C10.9787 6.48397 10.7501 6.25531 10.4681 6.25531H8.42556C8.14353 6.25531 7.91492 6.48397 7.91492 6.76595V11.8723C7.91492 12.1543 8.14353 12.383 8.42556 12.383H10.4681C10.7501 12.383 10.9787 12.1543 10.9787 11.8723ZM9.95747 11.3617H8.93619V7.27658H9.95747V11.3617Z" fill="#231F20"/>
<path d="M13.5319 12.383H15.5745C15.8565 12.383 16.0851 12.1543 16.0851 11.8723V6.76595C16.0851 6.48397 15.8565 6.25531 15.5745 6.25531H13.5319C13.2499 6.25531 13.0213 6.48397 13.0213 6.76595V11.8723C13.0213 12.1543 13.2499 12.383 13.5319 12.383ZM14.0425 7.27658H15.0638V11.3617H14.0425V7.27658Z" fill="#231F20"/>
</svg>
