<svg width="24" height="24" viewBox="0 0 24 24" fill="none" xmlns="http://www.w3.org/2000/svg">
<g clip-path="url(#clip0)">
<path d="M20.7998 11.0885L15.5058 10.6286C13.1709 10.4254 10.8228 10.4254 8.48788 10.6286L3.19393 11.0885C1.3818 11.2379 -0.0098675 12.7573 -7.06652e-05 14.5755V19.3255C-0.00963313 21.1459 1.38541 22.6661 3.19993 22.8125L8.49393 23.2725C9.65792 23.3725 10.8299 23.4245 12.0029 23.4245C13.1759 23.4245 14.3479 23.3745 15.5119 23.2725L20.8059 22.8125C22.6184 22.6631 24.0102 21.1431 23.9999 19.3245V14.5745C24.0089 12.7545 22.614 11.235 20.7998 11.0885Z" fill="#E53935"/>
<path d="M4.50001 20.5755C4.22387 20.5755 4 20.3516 4 20.0755V14.0755C4 13.7994 4.22387 13.5755 4.50001 13.5755C4.77615 13.5755 5.00003 13.7994 5.00003 14.0755V20.0755C5.00003 20.3517 4.77615 20.5755 4.50001 20.5755Z" fill="#FAFAFA"/>
<path d="M6.50002 14.5755H2.50001C2.22387 14.5755 2 14.3517 2 14.0755C2 13.7994 2.22387 13.5755 2.50001 13.5755H6.49998C6.77612 13.5755 6.99999 13.7994 6.99999 14.0755C6.99999 14.3517 6.77616 14.5755 6.50002 14.5755Z" fill="#FAFAFA"/>
<path d="M4.50007 5.57555C4.34271 5.57555 4.1945 5.50144 4.10009 5.37554L1.1001 1.37557C0.934353 1.1547 0.979071 0.841291 1.19995 0.675541C1.42082 0.509792 1.73422 0.554511 1.89997 0.775385C1.90002 0.775432 1.90007 0.775478 1.90011 0.775572L4.50012 4.24154L7.10013 0.775572C7.26583 0.554651 7.57919 0.509886 7.80011 0.675588C8.02103 0.841291 8.06579 1.1547 7.90009 1.37557L4.9001 5.37554C4.80565 5.50149 4.65748 5.57555 4.50007 5.57555Z" fill="#E53935"/>
<path d="M4.50007 9.57555C4.22394 9.57555 4.00006 9.35168 4.00006 9.07554V5.07557C4.00006 4.79944 4.22394 4.57556 4.50007 4.57556C4.77621 4.57556 5.00009 4.79944 5.00009 5.07557V9.07554C5.00009 9.35168 4.77621 9.57555 4.50007 9.57555Z" fill="#E53935"/>
<path d="M10 9.57558C8.34321 9.57558 7.00006 8.23243 7.00006 6.57559V5.57561C7.00006 3.91877 8.34321 2.57562 10 2.57562C11.6569 2.57562 13 3.91877 13 5.57561V6.57559C13 8.23243 11.6569 9.57558 10 9.57558ZM10 3.5756C8.89549 3.5756 8.00004 4.47105 8.00004 5.57561V6.57559C8.00004 7.68015 8.89549 8.5756 10 8.5756C11.1046 8.5756 12 7.68015 12 6.57559V5.57561C12 4.47101 11.1046 3.5756 10 3.5756Z" fill="#E53935"/>
<path d="M17.0001 9.5755C15.3432 9.5755 14.0001 8.23235 14.0001 6.57552V3.07551C14.0001 2.79937 14.2239 2.5755 14.5001 2.5755C14.7762 2.5755 15.0001 2.79937 15.0001 3.07551V6.57552C15.0001 7.68007 15.8955 8.57552 17.0001 8.57552C18.1047 8.57552 19.0001 7.68007 19.0001 6.57552V3.07551C19.0001 2.79937 19.224 2.5755 19.5001 2.5755C19.7763 2.5755 20.0001 2.79937 20.0001 3.07551V6.57552C20 8.23235 18.6569 9.5755 17.0001 9.5755Z" fill="#E53935"/>
<path d="M21.5 9.57552C19.0001 9.57552 19.0001 6.94153 19.0001 6.07551C19.0001 5.79937 19.2239 5.5755 19.5001 5.5755C19.7762 5.5755 20.0001 5.79937 20.0001 6.07551C20.0001 8.15052 20.6001 8.57549 21.5001 8.57549C21.7762 8.57549 22.0001 8.79936 22.0001 9.0755C22.0001 9.35164 21.7762 9.57552 21.5 9.57552Z" fill="#E53935"/>
<path d="M9.00001 20.5755C7.89545 20.5755 7 19.6801 7 18.5755V16.0755C7 15.7994 7.22387 15.5755 7.50001 15.5755C7.77615 15.5755 8.00003 15.7994 8.00003 16.0755V18.5755C8.00003 19.1278 8.44773 19.5755 9.00001 19.5755C9.55229 19.5755 9.99999 19.1278 9.99999 18.5755V16.0755C9.99999 15.7994 10.2239 15.5755 10.5 15.5755C10.7761 15.5755 11 15.7994 11 16.0755V18.5755C11 19.6801 10.1046 20.5755 9.00001 20.5755Z" fill="#FAFAFA"/>
<path d="M12.5 20.5755C12.2239 20.5755 12 20.3516 12 20.0755V14.0755C12 13.7994 12.2239 13.5755 12.5 13.5755C12.7762 13.5755 13 13.7994 13 14.0755V20.0755C13 20.3517 12.7762 20.5755 12.5 20.5755Z" fill="#FAFAFA"/>
<path d="M21 20.5755H20C18.8954 20.5755 18 19.6801 18 18.5755V17.5755C18 16.471 18.8954 15.5755 20 15.5755C21.1046 15.5755 22 16.471 22 17.5755V18.0755C22 18.3517 21.7761 18.5755 21.5 18.5755H19C19 19.1278 19.4477 19.5755 20 19.5755H21C21.2761 19.5755 21.5 19.7994 21.5 20.0755C21.5 20.3517 21.2761 20.5755 21 20.5755ZM19 17.5755H21C21 17.0232 20.5523 16.5755 20 16.5755C19.4477 16.5755 19 17.0232 19 17.5755Z" fill="#FAFAFA"/>
<path d="M14.5 20.5754C13.1193 20.5754 12 19.4562 12 18.0755C12 16.6948 13.1193 15.5755 14.5 15.5755C15.8807 15.5755 16.9999 16.6948 16.9999 18.0755C16.9999 19.4562 15.8807 20.5754 14.5 20.5754ZM14.5 16.5755C13.6716 16.5755 13 17.2471 13 18.0755C13 18.9039 13.6716 19.5755 14.5 19.5755C15.3284 19.5755 16 18.9039 16 18.0755C16 17.2471 15.3284 16.5755 14.5 16.5755Z" fill="#FAFAFA"/>
</g>
<defs>
<clipPath id="clip0">
<rect width="24" height="24" fill="white"/>
</clipPath>
</defs>
</svg>
